<svg xmlns="http://www.w3.org/2000/svg" aria-hidden="true" focusable="false" width="1em" height="1em"
     style="-ms-transform: rotate(360deg); -webkit-transform: rotate(360deg); transform: rotate(360deg);"
     preserveAspectRatio="xMidYMid meet" viewBox="0 0 256 256"><defs><linearGradient x1="41.703%" y1="1.925%" x2="71.876%" y2="95.235%" id="IconifyId-175830f2e47-8e1f0e-6"><stop stop-color="#00CDD7" offset="28%"/><stop stop-color="#2086D7" offset="94%"/></linearGradient><linearGradient x1="22.489%" y1="15.127%" x2="82.877%" y2="84.763%" id="IconifyId-175830f2e47-8e1f0e-7"><stop stop-color="#FFF045" offset="14%"/><stop stop-color="#00CDD7" offset="37%"/></linearGradient><linearGradient x1="11171%" y1="-27691.798%" x2="11907%" y2="-28759.626%" id="IconifyId-175830f2e47-8e1f0e-8"><stop stop-color="#00CDD7" offset="28%"/><stop stop-color="#2086D7" offset="94%"/></linearGradient></defs><path fill="url(#IconifyId-175830f2e47-8e1f0e-6)" d="M34.4 231.2L0 26.8L64 .4l40.4 24l37.6-20l77.6 30L176 256z"/><path fill="url(#IconifyId-175830f2e47-8e1f0e-7)" d="M256 86.8L222.8 5.2L163.2 0L70.4 88.8l24.8 114.8L142 236l114-67.6l-28-52.4z"/><path fill="url(#IconifyId-175830f2e47-8e1f0e-8)" d="M204.8 74.4L228 116l28-29.2L235.6 36z"/><path d="M48 48h160v160H48z" fill="#000"/><path d="M63.2 178h60v10h-60v-10zm78.4-52.4l8.4-10.4c6 4.8 12 8 19.6 8c6 0 9.6-2.4 9.6-6.4c0-3.6-2.4-5.6-13.2-8.4c-13.2-3.6-21.6-7.2-21.6-20.4v-.4c0-12 9.6-20 22.8-20a39.16 39.16 0 0 1 24.4 8.4L184 87.2a30.48 30.48 0 0 0-16.8-6.4c-5.2 0-8.4 2.4-8.4 6c0 4.4 2.8 6 14 8.8c13.2 3.6 20.8 8.4 20.8 20c0 13.2-10 20.8-24 20.8a46.12 46.12 0 0 1-28-10.8zm-12.8-56.8l-10 38.4l-11.2-38.4H96.4l-11.2 38.4l-10-38.4H59.6l19.2 66.4h12.4L102 96.8l10.8 38.4h12.4l19.2-66.4h-15.6z" fill="#FFF"/></svg>
